# xmcd
#
# Track frame offsets: 
#        150
#        22816
#        50964
#        70269
#        95357
#        118284
#        139043
#        168142
#        188923
#        207705
#        225654
#        248542
#
# Disc length: 3639 seconds
#
# Revision: 0
# Processed by: cddbd v1.5.2PL0 Copyright (c) Steve Scherf et al.
# Submitted via: ExactAudioCopy v0.99pb4
#
DISCID=a70e350c
DTITLE=John Primer - All Original
DYEAR=1900
DGENRE=Blues
TTITLE0=Add A Little Touch
TTITLE1=At Home Alone
TTITLE2=Bad Child
TTITLE3=Blue Eyed Woman
TTITLE4=Everyday Brings By A Change
TTITLE5=Going Back To Mississippi
TTITLE6=I Called My Baby
TTITLE7=Keep On Lovin' The Blues
TTITLE8=Love In My Heart For You
TTITLE9=Other Man
TTITLE10=Say Yes, Don't Say No
TTITLE11=The Woman That I'm Lovin'
EXTD=
EXTT0=
EXTT1=
EXTT2=
EXTT3=
EXTT4=
EXTT5=
EXTT6=
EXTT7=
EXTT8=
EXTT9=
EXTT10=
EXTT11=
PLAYORDER=
